
<svg width="464px" height="419px" viewBox="0 0 464 419" version="1.1" xmlns="http://www.w3.org/2000/svg" xmlns:xlink="http://www.w3.org/1999/xlink">
    <g id="Page-1" stroke="none" stroke-width="1" fill="none" fill-rule="evenodd">
        <g id="Rectangle-2" transform="translate(231.845, 209.3405) rotate(36) translate(-231.845, -209.3405)translate(24.345, 101.3328)" fill="#203764">
            <path d="M415,77.8009052 L415,129.800905 L310.998592,129.800254 C305.762449,155.252516 291.379281,178.904189 268.700212,195.381497 C220.444975,230.440979 152.905051,219.743705 117.84557,171.488469 C108.506747,158.634682 102.414522,144.41258 99.4139382,129.800521 L310.998592,129.800254 C314.509055,112.736318 313.908158,94.8630625 308.939423,77.7998273 L415,77.8009052 Z M141.738598,20.633826 C189.993834,-14.4256558 257.533759,-3.72838268 292.59324,44.5268541 C300.128548,54.8983151 305.550141,66.1606239 308.939423,77.7998273 L101.524775,77.7996537 C96.6451739,94.5938082 95.8554058,112.471396 99.4139382,129.800521 L0,129.800905 L0,77.8009052 L101.524775,77.7996537 C107.977239,55.5921668 121.581055,35.2791377 141.738598,20.633826 Z" id="Combined-Shape"></path>
        </g>
    </g>
</svg>